<?xml version="1.0" encoding="UTF-8"?>
<svg width="37px" height="37px" viewBox="0 0 37 37" version="1.1" xmlns="http://www.w3.org/2000/svg" xmlns:xlink="http://www.w3.org/1999/xlink">
    <!-- Generator: sketchtool 54.1 (76490) - https://sketchapp.com -->
    <title>EF3A6EDA-CBA0-4364-9841-CF2CC27F8CCF</title>
    <desc>Created with sketchtool.</desc>
    <g id="Page-1" stroke="none" stroke-width="1" fill="none" fill-rule="evenodd">
        <g id="Homepage---Tennis" transform="translate(-36.000000, -25.000000)" fill="#FFFFFF">
            <g id="Fill-2" transform="translate(36.000000, 25.000000)">
                <path d="M17.1455098,0.0373522501 C17.5367159,0.0130723312 17.9316322,2.27373675e-13 18.3284609,2.27373675e-13 C26.6632467,2.27373675e-13 33.7161247,5.55263287 36,13.1674762 C34.4407746,13.9817954 33.0007266,15.0239959 31.735844,16.2473634 C30.2287438,17.706071 28.9713009,19.4206311 28.039867,21.3012968 C27.2723437,22.8496557 26.7246715,24.5063131 26.4210291,26.2098759 C26.0726678,28.1635057 26.0409968,30.1732212 26.3297456,32.1364138 C26.4638738,33.0590794 26.670653,33.9705087 26.9426578,34.8614259 C24.3718793,36.226753 21.4397057,37 18.3288853,37 C13.0906129,37 8.35880852,34.8073053 5,31.2867123 C5.91097487,31.2437562 6.81818224,31.1335595 7.71051031,30.9561219 C8.92698749,30.7151827 10.1192381,30.3472592 11.2593159,29.8634778 C13.3625414,28.9706959 15.2906015,27.6819667 16.9244141,26.083212 C18.4761998,24.5647369 19.7560094,22.7698494 20.6855834,20.8069437 C21.4922124,19.1017074 22.034305,17.2713419 22.2821023,15.4015778 C22.5447695,13.434847 22.4907462,11.4251793 22.1181679,9.47695245 C21.7865744,7.74369712 21.2016133,6.0608855 20.3894044,4.49569616 C19.5399497,2.8576862 18.4408377,1.35044736 17.1461012,0.0374287524 L17.1455098,0.0373522501 Z M36.5947802,14 C36.860081,15.2922738 37,16.6323607 37,18.0068514 C37,24.7300422 33.6619108,30.638894 28.6359368,34 C28.4160615,33.1932954 28.2525204,32.3693644 28.1471183,31.537799 C27.9054396,29.6452438 27.9617691,27.7087417 28.3142972,25.8354683 C28.6232093,24.2029241 29.1574487,22.6200526 29.8951889,21.1499847 C30.7437831,19.4581758 31.8613485,17.9173426 33.1823866,16.6059338 C34.2090545,15.5889399 35.3575083,14.71147 36.5949523,14.0003426 L36.5947802,14 Z M15.3158275,0.000280732053 C15.4286609,0.102380075 15.5396474,0.2063671 15.6506292,0.310354124 C17.0287036,1.62248606 18.1903263,3.17101374 19.0708127,4.87263719 C19.821788,6.32847489 20.3656401,7.8939917 20.6800657,9.50863662 C21.0389134,11.3615166 21.0962582,13.2768352 20.8502438,15.1484468 C20.6227256,16.8935837 20.1270176,18.6008702 19.3889697,20.1929113 C18.5214581,22.0590534 17.3228052,23.7587892 15.8689183,25.193814 C14.3650736,26.6780153 12.5893266,27.8710298 10.6581662,28.6935263 C9.61123312,29.1397353 8.5180359,29.474397 7.40263,29.6937068 C6.35754369,29.8979055 5.29209548,30 4.22849404,30 C4.11196242,30 3.99727757,29.9981123 3.88074122,29.9962198 C1.4501934,26.8179457 -2.84217094e-14,22.8191597 -2.84217094e-14,18.4760412 C-2.84217094e-14,9.18719842 6.63134967,1.46706698 15.3159364,2.27373675e-13 L15.3158275,0.000280732053 Z" id="Fill-1"></path>
            </g>
        </g>
    </g>
</svg>